<svg version="1.0" xmlns="http://www.w3.org/2000/svg"
 width="220px" height="40px" viewBox="22.740014648437494 12.788720703125001 700.519970703125 124.42255859375"
 preserveAspectRatio="xMidYMid meet" class="text">
<g transform="translate(0.000000,150.000000) scale(0.0600000,-0.0600000)"
fill="#000000" stroke="none">
<path d="M1665 1651 c-86 -31 -132 -59 -200 -123 -53 -49 -75 -79 -110 -152
-24 -50 -47 -112 -50 -138 -7 -44 -5 -50 23 -78 56 -56 108 -28 142 75 43 128
119 212 230 252 180 66 355 11 461 -143 l30 -44 -56 0 -55 0 0 36 c0 20 -4 34
-8 32 -29 -12 -252 -144 -252 -149 0 -8 238 -149 251 -149 5 0 9 9 9 19 0 49
5 51 129 51 156 0 165 6 159 102 -13 176 -174 351 -377 412 -77 23 -259 21
-326 -3z"/>
<path d="M5352 1589 c-151 -25 -274 -145 -317 -310 -19 -71 -19 -230 0 -302
56 -216 208 -326 435 -315 114 6 182 32 255 99 116 107 168 296 131 479 -39
192 -146 310 -312 345 -76 16 -113 17 -192 4z m240 -112 c107 -63 166 -170
175 -318 11 -177 -53 -315 -179 -385 -48 -26 -62 -29 -143 -29 -106 0 -160 20
-223 83 -140 140 -146 432 -12 586 63 71 129 96 245 93 78 -2 98 -7 137 -30z"/>
<path d="M6229 1590 c-138 -25 -221 -121 -221 -255 0 -66 10 -94 51 -138 39
-43 67 -54 254 -103 120 -31 184 -52 212 -72 111 -78 67 -225 -82 -268 -70
-20 -182 -14 -245 13 -74 33 -128 113 -128 191 0 19 -5 22 -45 22 l-45 0 0
-47 c0 -75 18 -122 67 -174 71 -75 126 -93 294 -94 136 0 136 0 205 35 55 28
74 45 99 84 27 45 30 57 30 137 0 82 -2 89 -31 126 -46 57 -116 90 -291 135
-87 22 -169 46 -183 53 -67 35 -87 104 -51 179 31 63 98 96 195 96 124 0 209
-57 235 -157 12 -42 12 -43 56 -43 l45 0 0 38 c0 51 -43 135 -88 172 -72 60
-220 91 -333 70z"/>
<path d="M2630 1540 l0 -40 270 0 c149 0 270 -2 270 -5 0 -2 -130 -169 -290
-372 -265 -335 -290 -370 -290 -405 l0 -38 355 0 355 0 0 40 0 40 -294 2 -294
3 289 365 c274 347 288 367 289 408 l0 42 -330 0 -330 0 0 -40z"/>
<path d="M3430 1130 l0 -450 315 0 315 0 0 40 0 40 -270 0 -270 0 0 170 0 170
250 0 250 0 0 40 0 40 -250 0 -250 0 0 160 0 160 265 0 265 0 0 40 0 40 -310
0 -310 0 0 -450z"/>
<path d="M4200 1131 l0 -451 45 0 45 0 0 195 0 195 189 0 c179 0 190 -1 222
-23 50 -33 69 -81 80 -199 16 -180 11 -168 74 -168 30 0 55 2 55 4 0 2 -7 19
-15 39 -8 19 -17 79 -21 134 -3 54 -10 115 -15 135 -12 46 -49 91 -89 108
l-30 12 39 20 c50 25 88 80 103 149 24 118 -19 217 -119 265 l-58 29 -252 3
-253 4 0 -451z m503 345 c52 -26 80 -68 85 -133 5 -64 -9 -103 -53 -142 -46
-40 -109 -51 -290 -51 l-155 0 0 176 0 176 188 -4 c156 -3 193 -7 225 -22z"/>
<path d="M6753 1558 c4 -13 59 -216 124 -451 l118 -428 54 3 54 3 104 370 c57
204 106 377 109 385 3 8 56 -159 116 -372 l110 -388 52 0 51 0 118 428 c65
235 120 437 123 450 6 21 3 22 -42 22 l-49 0 -100 -385 c-55 -211 -101 -381
-102 -377 -2 4 -48 169 -103 367 -56 198 -103 368 -106 378 -4 14 -17 17 -63
17 l-57 0 -104 -375 c-57 -206 -107 -375 -110 -375 -3 0 -43 147 -90 328 -46
180 -90 348 -98 375 l-14 47 -50 0 c-47 0 -50 -1 -45 -22z"/>
<path d="M8064 1130 l-181 -450 52 0 52 0 52 135 52 135 201 -2 200 -3 52
-132 51 -133 52 0 52 0 -13 38 c-8 20 -78 199 -156 397 -78 198 -151 384 -162
413 l-19 52 -52 0 -53 0 -180 -450z m310 122 c42 -111 76 -205 76 -207 0 -3
-72 -5 -160 -5 -88 0 -160 4 -160 8 0 7 125 332 150 391 6 13 12 22 15 20 2
-2 37 -95 79 -207z"/>
<path d="M8800 1131 l0 -451 50 0 50 0 0 189 0 190 203 3 c184 3 206 5 242 25
82 44 124 119 125 223 0 122 -38 193 -129 237 -56 28 -57 28 -298 31 l-243 4
0 -451z m488 340 c135 -69 112 -280 -35 -320 -21 -6 -109 -11 -195 -11 l-158
0 0 181 0 182 173 -5 c153 -4 177 -7 215 -27z"/>
<path d="M1654 1125 l-6 -35 -148 0 c-136 0 -149 -2 -175 -22 -26 -20 -27 -24
-21 -81 17 -167 159 -334 341 -402 57 -22 82 -25 190 -25 105 0 134 4 189 24
136 49 252 154 313 282 30 63 34 79 31 140 -3 62 -6 70 -29 83 -23 13 -30 12
-65 -5 -34 -16 -42 -27 -60 -81 -59 -171 -171 -267 -334 -288 -59 -7 -167 12
-221 41 -43 22 -106 81 -141 131 l-30 44 79 -3 c78 -3 78 -3 83 -33 4 -19 11
-29 21 -27 19 5 249 136 249 142 0 5 -245 150 -254 150 -3 0 -8 -16 -12 -35z"/>
</g>

<style>
text {
  font-size: 20px;
  font-family: Arial Black;
  dominant-baseline: central;
  text-anchor: middle;
}
</style>
</svg>